<svg width="134" height="93" viewBox="0 0 134 93" fill="none" xmlns="http://www.w3.org/2000/svg">
<path opacity="0.1" d="M1.43909 47.2505C3.54888 55.4043 8.01138 62.4527 15.0634 65.8694C29.7239 72.9701 62.787 69.308 87.4631 65.1042C100.228 62.93 111.447 56.9298 119.597 48.4858L1.43909 47.2505Z" fill="#6C63FF"/>
<path opacity="0.1" d="M130.84 8.86983H117.3C116.658 8.86983 116.131 8.3937 116.131 7.8119C116.131 7.2301 116.658 6.75275 117.3 6.75275H119.642C118.998 6.75275 118.472 6.27662 118.472 5.6936C118.472 5.11059 118.998 4.63567 119.642 4.63567H117.971C117.327 4.63567 116.8 4.15954 116.8 3.57653C116.8 2.99351 117.327 2.5186 117.971 2.5186H125.037C123.469 1.85906 121.636 1.39022 119.524 1.14365C100.254 -1.09489 93.3747 0.385727 90.9479 1.90764C87.923 3.82825 84.5629 5.16092 81.0439 5.83571C69.1552 8.05482 46.9216 10.7245 26.7699 4.98548C16.7542 2.12749 9.3098 6.95073 4.84851 15.0134H133.191C133.023 12.6704 132.522 10.5059 131.601 8.61233C131.383 8.78068 131.115 8.87131 130.84 8.86983V8.86983Z" fill="#6C63FF"/>
<path opacity="0.1" d="M0.291255 30.2313C-0.228788 34.9734 -0.0520104 39.766 0.81597 44.4569L119.688 48.3911C122.96 44.9973 125.741 41.1614 127.948 36.9955L0.291255 30.2313ZM47.3067 40.3795H44.9661C45.6098 40.3795 46.137 40.8568 46.137 41.4386C46.137 42.0204 45.6098 42.4965 44.9661 42.4965H31.4268C30.7842 42.4965 30.2571 42.0204 30.2571 41.4386C30.2571 40.8568 30.7842 40.3795 31.4268 40.3795H33.7685C33.1248 40.3795 32.5989 39.9033 32.5989 39.3215C32.5989 38.7397 33.1248 38.2624 33.7685 38.2624H32.096C31.4523 38.2624 30.9251 37.7862 30.9251 37.2044C30.9251 36.6226 31.4523 36.1453 32.096 36.1453H45.6354C46.2791 36.1453 46.805 36.6214 46.805 37.2044C46.805 37.7875 46.2791 38.2624 45.6354 38.2624H47.3067C47.9504 38.2624 48.4763 38.7385 48.4763 39.3215C48.4763 39.9045 47.9504 40.3795 47.3067 40.3795Z" fill="#6C63FF"/>
<path opacity="0.1" d="M133.196 15.0862L3.41631 17.9406C1.83731 21.6124 0.790309 25.7639 0.308105 30.0661H130.922C131.772 27.5491 132.403 24.9632 132.807 22.3375C133.197 19.8099 133.352 17.3649 133.196 15.0862ZM26.658 24.4449H24.3174C24.9612 24.4449 25.4883 24.9222 25.4883 25.504C25.4883 26.0858 24.9612 26.5632 24.3174 26.5632H10.7781C10.1356 26.5632 9.60843 26.0858 9.60843 25.504C9.60843 24.9222 10.1356 24.4449 10.7781 24.4449H13.1199C12.4761 24.4449 11.9502 23.9687 11.9502 23.3869C11.9502 22.8051 12.4761 22.3278 13.1199 22.3278H11.4474C10.8036 22.3278 10.2765 21.8517 10.2765 21.2699C10.2765 20.6881 10.8036 20.2107 11.4474 20.2107H24.9867C25.6304 20.2107 26.1564 20.6868 26.1564 21.2699C26.1564 21.8529 25.6304 22.3278 24.9867 22.3278H26.658C27.3018 22.3278 27.8277 22.8051 27.8277 23.3869C27.8277 23.9687 27.3018 24.4449 26.658 24.4449Z" fill="#6C63FF"/>
<path d="M63.0385 92.71C83.7331 92.71 100.509 75.9337 100.509 55.2391C100.509 34.5444 83.7331 17.7681 63.0385 17.7681C42.3438 17.7681 25.5675 34.5444 25.5675 55.2391C25.5675 75.9337 42.3438 92.71 63.0385 92.71Z" fill="#6C63FF"/>
<path d="M82.6995 74.0693C82.6995 79.9845 73.4004 74.5746 63.4308 74.5746C53.4612 74.5746 43.3774 79.761 43.3774 73.8458C43.3774 70.4728 46.5913 65.782 51.202 62.375C54.6758 59.8073 58.9416 57.9683 63.2267 57.9683C67.6334 57.9683 71.9501 59.9591 75.3935 62.692C79.7394 66.1378 82.6995 70.768 82.6995 74.0693Z" fill="#444053"/>
<path d="M75.3923 62.6895C70.093 61.8915 60.5084 60.9186 51.202 62.3725C54.6758 59.8048 58.9416 57.9659 63.2267 57.9659C67.6322 57.9659 71.9489 59.9566 75.3923 62.6895Z" fill="#F6F8FB"/>
<path opacity="0.05" d="M43.3775 28.7883C43.3775 28.7883 32.09 36.0044 32.1823 47.2918C32.2746 58.5793 43.3775 28.7883 43.3775 28.7883Z" fill="black"/>
<path d="M100.495 8.40826C100.495 8.40826 90.2676 7.79245 91.4737 14.9587C91.4737 14.9587 91.2308 16.2243 92.3823 16.8001C92.3823 16.8001 92.4005 16.2693 93.4305 16.449C93.7976 16.5104 94.1706 16.5284 94.5419 16.5025C95.0436 16.4684 95.5204 16.2713 95.8998 15.9413V15.9413C95.8998 15.9413 98.7748 14.7546 99.8935 10.0553C99.8935 10.0553 100.721 9.03015 100.688 8.76779L98.9619 9.50385C98.9619 9.50385 99.5509 10.7488 99.0833 11.7837C99.0833 11.7837 99.0274 9.55001 98.6959 9.59738C98.6291 9.60831 97.7995 10.0286 97.7995 10.0286C97.7995 10.0286 98.8137 12.1979 98.0424 13.7732C98.0424 13.7732 98.3327 11.1011 97.4764 10.1852L96.2618 10.8946C96.2618 10.8946 97.4472 13.1343 96.6432 14.9623C96.6432 14.9623 96.8496 12.159 96.0067 11.0671L94.905 11.9258C94.905 11.9258 96.0188 14.134 95.3399 15.6498C95.3399 15.6498 95.2512 12.3861 94.667 12.1396C94.667 12.1396 93.7038 12.9898 93.5568 13.3384C93.5568 13.3384 94.3196 14.9405 93.8471 15.7859C93.8471 15.7859 93.5568 13.6117 93.3188 13.5995C93.3188 13.5995 92.3592 15.0401 92.2584 16.0288C92.2584 16.0288 92.3009 14.5591 93.0855 13.4623C93.0855 13.4623 92.1576 13.6214 91.6171 14.2239C91.6171 14.2239 91.7665 13.2048 93.3175 13.1161C93.3175 13.1161 94.1107 12.023 94.3232 11.9574C94.3232 11.9574 92.7746 11.8274 91.8357 12.244C91.8357 12.244 92.6616 11.2833 94.6062 11.7193L95.6994 10.8326C95.6994 10.8326 93.6613 10.5533 92.7965 10.8618C92.7965 10.8618 93.7912 10.0116 95.9921 10.631L97.1764 9.92289C97.1764 9.92289 95.4383 9.54879 94.4022 9.67997C94.4022 9.67997 95.4953 9.09088 97.5225 9.72977L98.3728 9.34959C98.3728 9.34959 97.0986 9.09938 96.7258 9.06051C96.3529 9.02165 96.3334 8.91719 96.3334 8.91719C97.1426 8.78563 97.9724 8.88194 98.7299 9.19534C98.7299 9.19534 100.525 8.52122 100.495 8.40826Z" fill="#6C63FF"/>
<path d="M90.0055 5.22236C90.0055 5.22236 85.3899 4.943 85.9292 8.18117C85.9292 8.18117 85.8211 8.75325 86.3397 9.01318C86.3397 9.01318 86.347 8.77025 86.8134 8.85528C86.9792 8.88255 87.1475 8.89071 87.3151 8.87957C87.5419 8.86338 87.7575 8.77434 87.9297 8.62572V8.62572C87.9297 8.62572 89.2281 8.08886 89.7334 5.9657C89.7334 5.9657 90.1075 5.50293 90.0978 5.3839L89.318 5.71671C89.318 5.71671 89.5852 6.27907 89.3751 6.7467C89.3751 6.7467 89.3496 5.73736 89.2002 5.76165C89.1698 5.76165 88.7945 5.95599 88.7945 5.95599C88.7945 5.95599 89.2536 6.93618 88.9074 7.64795C88.9074 7.64795 89.0386 6.44062 88.6524 6.02643L88.1034 6.34709C88.1034 6.34709 88.639 7.36008 88.2758 8.18602C88.2758 8.18602 88.3682 6.91918 87.988 6.42604L87.49 6.81351C87.49 6.81351 87.9928 7.81071 87.6868 8.49575C87.6868 8.49575 87.6467 7.02121 87.3819 6.90946C87.3819 6.90946 86.9471 7.29328 86.8803 7.45118C86.8803 7.45118 87.2252 8.17995 87.0114 8.5577C87.0114 8.5577 86.8802 7.57507 86.7685 7.57143C86.7685 7.57143 86.3349 8.22125 86.2899 8.66458C86.3108 8.25201 86.4394 7.8521 86.6628 7.50462C86.4129 7.55191 86.1824 7.67141 85.9997 7.84836C85.9997 7.84836 86.0665 7.38802 86.7697 7.34794C86.7697 7.34794 87.128 6.8548 87.224 6.82444C87.224 6.82444 86.5244 6.76614 86.1005 6.9544C86.1005 6.9544 86.4733 6.51957 87.3527 6.71148L87.8386 6.31187C87.8386 6.31187 86.9179 6.19041 86.5268 6.32402C86.5268 6.32402 86.9762 5.9402 87.971 6.22077L88.5054 5.90011C88.5054 5.90011 87.7208 5.73128 87.2519 5.79201C87.2519 5.79201 87.7463 5.52601 88.6621 5.81509L89.0447 5.64262C89.0447 5.64262 88.469 5.52966 88.3013 5.51265C88.1337 5.49565 88.1228 5.44828 88.1228 5.44828C88.4874 5.38762 88.8617 5.42968 89.2038 5.56974C89.2038 5.56974 90.0188 5.27337 90.0055 5.22236Z" fill="#6C63FF"/>
<path d="M49.7166 50.3259C50.4296 50.2859 53.7856 50.0332 55.9173 48.8174C56.2596 48.616 56.6463 48.5021 57.0432 48.4858C57.721 48.4664 58.5007 48.7494 58.0015 50.3332C57.1926 52.924 52.4957 55.8391 49.5806 55.6775C46.7773 55.5221 43.4516 54.3925 41.2556 50.4207C41.0452 50.0386 40.9416 49.6068 40.9556 49.1708C40.9811 48.3692 41.2726 47.3647 42.7775 48.4846C44.8108 49.9968 48.6684 50.2834 49.4421 50.3259C49.5336 50.3308 49.6252 50.3308 49.7166 50.3259V50.3259Z" fill="#444053"/>
<path d="M76.6811 50.3259C77.3941 50.2859 80.7501 50.0332 82.8817 48.8174C83.2241 48.616 83.6108 48.5021 84.0077 48.4858C84.6854 48.4664 85.4652 48.7494 84.966 50.3332C84.1571 52.924 79.4602 55.8391 76.5451 55.6775C73.7417 55.5221 70.4161 54.3925 68.2201 50.4207C68.0097 50.0386 67.9061 49.6068 67.9201 49.1708C67.9456 48.3692 68.2371 47.3647 69.742 48.4846C71.7753 49.9968 75.6329 50.2834 76.4066 50.3259C76.498 50.3308 76.5897 50.3308 76.6811 50.3259V50.3259Z" fill="#444053"/>
</svg>
