<svg width="113" height="71" viewBox="0 0 113 71" fill="none" xmlns="http://www.w3.org/2000/svg">
<g clip-path="url(#clip0_21_162)">
<path d="M45.5684 32.7682H2.18831C1.60814 32.7676 1.05191 32.5381 0.641661 32.1301C0.231414 31.7222 0.00065041 31.1691 0 30.5922V6.40001C0.00065041 5.8231 0.231414 5.27 0.641661 4.86205C1.05191 4.45411 1.60814 4.22465 2.18831 4.224H45.5684C46.1486 4.22465 46.7048 4.45411 47.1151 4.86206C47.5253 5.27 47.7561 5.8231 47.7567 6.40001V30.5922C47.7561 31.1691 47.5253 31.7222 47.1151 32.1301C46.7048 32.5381 46.1486 32.7676 45.5684 32.7682V32.7682ZM2.18831 4.48C1.67639 4.48058 1.18561 4.68305 0.823625 5.043C0.461643 5.40294 0.258028 5.89097 0.257449 6.40001V30.5922C0.258028 31.1012 0.461643 31.5893 0.823625 31.9492C1.18561 32.3092 1.67639 32.5116 2.18831 32.5122H45.5684C46.0803 32.5116 46.5711 32.3092 46.9331 31.9492C47.2951 31.5893 47.4987 31.1012 47.4993 30.5922V6.40001C47.4987 5.89097 47.2951 5.40294 46.9331 5.043C46.5711 4.68305 46.0803 4.48058 45.5684 4.48H2.18831Z" fill="#E6E6E6"/>
<path d="M34.5752 13.8641H26.2082C26.0545 13.8641 25.9072 13.9248 25.7986 14.0328C25.6899 14.1409 25.6289 14.2874 25.6289 14.4401C25.6289 14.5929 25.6899 14.7394 25.7986 14.8474C25.9072 14.9555 26.0545 15.0161 26.2082 15.0161H34.5752C34.7289 15.0161 34.8762 14.9555 34.9848 14.8474C35.0935 14.7394 35.1545 14.5929 35.1545 14.4401C35.1545 14.2874 35.0935 14.1409 34.9848 14.0328C34.8762 13.9248 34.7289 13.8641 34.5752 13.8641Z" fill="#E6E6E6"/>
<path d="M42.7312 17.5121H26.0975C25.8387 17.5121 25.6289 17.7707 25.6289 18.0882C25.6289 18.4056 25.8387 18.6642 26.0975 18.6642H42.7312C42.99 18.6642 43.1998 18.4056 43.1998 18.0882C43.1998 17.7707 42.99 17.5121 42.7312 17.5121Z" fill="#E6E6E6"/>
<path d="M42.7312 21.2481H26.0975C25.8387 21.2481 25.6289 21.5067 25.6289 21.8241C25.6289 22.1416 25.8387 22.4001 26.0975 22.4001H42.7312C42.99 22.4001 43.1998 22.1416 43.1998 21.8241C43.1998 21.5067 42.99 21.2481 42.7312 21.2481Z" fill="#E6E6E6"/>
<path d="M19.8237 27.4562H5.40654C5.04819 27.4558 4.70465 27.3141 4.45126 27.0621C4.19787 26.8101 4.05534 26.4685 4.05493 26.1122V10.1121C4.05534 9.75575 4.19787 9.41413 4.45126 9.16217C4.70465 8.9102 5.04819 8.76847 5.40654 8.76807H19.8237C20.182 8.76847 20.5256 8.9102 20.7789 9.16217C21.0323 9.41413 21.1749 9.75575 21.1753 10.1121V26.1122C21.1749 26.4685 21.0323 26.8101 20.7789 27.0621C20.5256 27.3141 20.182 27.4558 19.8237 27.4562V27.4562Z" fill="#E6E6E6"/>
<path d="M46.5982 9.21607C49.1575 9.21607 51.2323 7.15298 51.2323 4.60803C51.2323 2.06309 49.1575 0 46.5982 0C44.0389 0 41.9641 2.06309 41.9641 4.60803C41.9641 7.15298 44.0389 9.21607 46.5982 9.21607Z" fill="#E6E6E6"/>
<path d="M107.099 32.7682H63.7186C63.1384 32.7676 62.5822 32.5381 62.1719 32.1301C61.7617 31.7222 61.5309 31.1691 61.5303 30.5922V6.40001C61.5309 5.8231 61.7617 5.27 62.1719 4.86205C62.5822 4.45411 63.1384 4.22465 63.7186 4.224H107.099C107.679 4.22465 108.235 4.45411 108.645 4.86206C109.056 5.27 109.286 5.8231 109.287 6.40001V30.5922C109.286 31.1691 109.056 31.7222 108.645 32.1301C108.235 32.5381 107.679 32.7676 107.099 32.7682V32.7682ZM63.7186 4.48C63.2067 4.48058 62.7159 4.68305 62.3539 5.043C61.9919 5.40294 61.7883 5.89097 61.7877 6.40001V30.5922C61.7883 31.1012 61.9919 31.5893 62.3539 31.9492C62.7159 32.3092 63.2067 32.5116 63.7186 32.5122H107.099C107.611 32.5116 108.101 32.3092 108.463 31.9492C108.825 31.5893 109.029 31.1012 109.03 30.5922V6.40001C109.029 5.89097 108.825 5.40294 108.463 5.043C108.101 4.68305 107.611 4.48058 107.099 4.48H63.7186Z" fill="#3F3D56"/>
<path d="M96.1058 13.8641H87.7387C87.5851 13.8641 87.4377 13.9248 87.3291 14.0328C87.2204 14.1409 87.1594 14.2874 87.1594 14.4401C87.1594 14.5929 87.2204 14.7394 87.3291 14.8474C87.4377 14.9555 87.5851 15.0161 87.7387 15.0161H96.1058C96.2594 15.0161 96.4067 14.9555 96.5154 14.8474C96.624 14.7394 96.685 14.5929 96.685 14.4401C96.685 14.2874 96.624 14.1409 96.5154 14.0328C96.4067 13.9248 96.2594 13.8641 96.1058 13.8641V13.8641Z" fill="#3F3D56"/>
<path d="M104.262 17.5121H87.628C87.3692 17.5121 87.1594 17.7707 87.1594 18.0882C87.1594 18.4056 87.3692 18.6642 87.628 18.6642H104.262C104.52 18.6642 104.73 18.4056 104.73 18.0882C104.73 17.7707 104.52 17.5121 104.262 17.5121Z" fill="#3F3D56"/>
<path d="M104.262 21.2481H87.628C87.3692 21.2481 87.1594 21.5067 87.1594 21.8241C87.1594 22.1416 87.3692 22.4001 87.628 22.4001H104.262C104.52 22.4001 104.73 22.1416 104.73 21.8241C104.73 21.5067 104.52 21.2481 104.262 21.2481Z" fill="#3F3D56"/>
<path d="M81.3537 27.4562H66.9366C66.5782 27.4558 66.2347 27.3141 65.9813 27.0621C65.7279 26.8101 65.5854 26.4685 65.585 26.1122V10.1121C65.5854 9.75575 65.7279 9.41413 65.9813 9.16217C66.2347 8.9102 66.5782 8.76847 66.9366 8.76807H81.3537C81.712 8.76847 82.0556 8.9102 82.309 9.16217C82.5624 9.41413 82.7049 9.75575 82.7053 10.1121V26.1122C82.7049 26.4685 82.5624 26.8101 82.309 27.0621C82.0556 27.3141 81.712 27.4558 81.3537 27.4562Z" fill="#6C63FF"/>
<path d="M108.128 9.21607C110.688 9.21607 112.763 7.15298 112.763 4.60803C112.763 2.06309 110.688 0 108.128 0C105.569 0 103.494 2.06309 103.494 4.60803C103.494 7.15298 105.569 9.21607 108.128 9.21607Z" fill="#6C63FF"/>
<path d="M107.868 6.47337C107.742 6.4736 107.619 6.43297 107.518 6.3576L107.511 6.35292L106.191 5.34806C106.13 5.30155 106.079 5.24347 106.04 5.17716C106.001 5.11084 105.976 5.03759 105.966 4.96159C105.956 4.8856 105.961 4.80835 105.98 4.73427C106 4.66019 106.035 4.59073 106.082 4.52987C106.129 4.46901 106.187 4.41794 106.254 4.3796C106.321 4.34125 106.394 4.31637 106.471 4.30638C106.547 4.29639 106.625 4.3015 106.699 4.3214C106.774 4.3413 106.844 4.3756 106.905 4.42235L107.76 5.07421L109.78 2.45425C109.827 2.39348 109.885 2.34248 109.952 2.30417C110.018 2.26586 110.092 2.24099 110.168 2.23097C110.245 2.22095 110.322 2.22598 110.397 2.24577C110.471 2.26556 110.541 2.29974 110.602 2.34633L110.589 2.36329L110.602 2.34658C110.726 2.44078 110.806 2.57976 110.827 2.73303C110.847 2.88629 110.805 3.04132 110.711 3.16411L108.334 6.24581C108.28 6.31682 108.209 6.37429 108.128 6.41375C108.047 6.45322 107.958 6.47362 107.868 6.47337V6.47337Z" fill="white"/>
<path d="M45.5684 70.9125H2.18831C1.60814 70.9118 1.05191 70.6824 0.641661 70.2744C0.231414 69.8665 0.00065041 69.3134 0 68.7365V44.5443C0.00065041 43.9674 0.231414 43.4143 0.641661 43.0063C1.05191 42.5984 1.60814 42.3689 2.18831 42.3683H45.5684C46.1486 42.3689 46.7048 42.5984 47.1151 43.0063C47.5253 43.4143 47.7561 43.9674 47.7567 44.5443V68.7365C47.7561 69.3134 47.5253 69.8665 47.1151 70.2744C46.7048 70.6824 46.1486 70.9118 45.5684 70.9125V70.9125ZM2.18831 42.6243C1.67639 42.6249 1.18561 42.8273 0.823625 43.1873C0.461643 43.5472 0.258028 44.0353 0.257449 44.5443V68.7365C0.258028 69.2455 0.461643 69.7335 0.823625 70.0935C1.18561 70.4534 1.67639 70.6559 2.18831 70.6565H45.5684C46.0803 70.6559 46.5711 70.4534 46.9331 70.0935C47.2951 69.7335 47.4987 69.2455 47.4993 68.7365V44.5443C47.4987 44.0353 47.2951 43.5472 46.9331 43.1873C46.5711 42.8273 46.0803 42.6249 45.5684 42.6243H2.18831Z" fill="#3F3D56"/>
<path d="M34.5752 52.0085H26.2082C26.0545 52.0085 25.9072 52.0692 25.7986 52.1772C25.6899 52.2852 25.6289 52.4317 25.6289 52.5845C25.6289 52.7373 25.6899 52.8838 25.7986 52.9918C25.9072 53.0998 26.0545 53.1605 26.2082 53.1605H34.5752C34.7289 53.1605 34.8762 53.0998 34.9848 52.9918C35.0935 52.8838 35.1545 52.7373 35.1545 52.5845C35.1545 52.4317 35.0935 52.2852 34.9848 52.1772C34.8762 52.0692 34.7289 52.0085 34.5752 52.0085Z" fill="#3F3D56"/>
<path d="M42.7312 55.6564H26.0975C25.8387 55.6564 25.6289 55.915 25.6289 56.2324C25.6289 56.5499 25.8387 56.8084 26.0975 56.8084H42.7312C42.99 56.8084 43.1998 56.5499 43.1998 56.2324C43.1998 55.915 42.99 55.6564 42.7312 55.6564Z" fill="#3F3D56"/>
<path d="M42.7312 59.3924H26.0975C25.8387 59.3924 25.6289 59.651 25.6289 59.9684C25.6289 60.2858 25.8387 60.5444 26.0975 60.5444H42.7312C42.99 60.5444 43.1998 60.2858 43.1998 59.9684C43.1998 59.651 42.99 59.3924 42.7312 59.3924Z" fill="#3F3D56"/>
<path d="M19.8237 65.6004H5.40654C5.04819 65.6 4.70465 65.4583 4.45126 65.2063C4.19787 64.9544 4.05534 64.6127 4.05493 64.2564V48.2563C4.05534 47.9 4.19787 47.5584 4.45126 47.3064C4.70465 47.0544 5.04819 46.9127 5.40654 46.9123H19.8237C20.182 46.9127 20.5256 47.0544 20.7789 47.3064C21.0323 47.5584 21.1749 47.9 21.1753 48.2563V64.2564C21.1749 64.6127 21.0323 64.9544 20.7789 65.2063C20.5256 65.4583 20.182 65.6 19.8237 65.6004V65.6004Z" fill="#6C63FF"/>
<path d="M46.5982 47.3603C49.1575 47.3603 51.2323 45.2972 51.2323 42.7523C51.2323 40.2073 49.1575 38.1442 46.5982 38.1442C44.0389 38.1442 41.9641 40.2073 41.9641 42.7523C41.9641 45.2972 44.0389 47.3603 46.5982 47.3603Z" fill="#6C63FF"/>
<path d="M46.3377 44.6177C46.2113 44.6179 46.0883 44.5773 45.9872 44.5019L45.981 44.4972L44.6611 43.4923C44.5998 43.4458 44.5483 43.3878 44.5096 43.3214C44.4709 43.2551 44.4458 43.1819 44.4356 43.1059C44.4254 43.0299 44.4304 42.9526 44.4502 42.8786C44.4701 42.8045 44.5045 42.735 44.5513 42.6742C44.5982 42.6133 44.6567 42.5622 44.7235 42.5239C44.7903 42.4855 44.864 42.4607 44.9404 42.4507C45.0169 42.4407 45.0946 42.4458 45.169 42.4657C45.2435 42.4856 45.3133 42.5199 45.3744 42.5666L46.2293 43.2185L48.2496 40.5985C48.2964 40.5378 48.3549 40.4868 48.4216 40.4485C48.4882 40.4102 48.5618 40.3853 48.6382 40.3753C48.7145 40.3652 48.7921 40.3703 48.8665 40.3901C48.9409 40.4099 49.0106 40.444 49.0717 40.4906L49.0592 40.5076L49.0721 40.4909C49.1953 40.5851 49.276 40.724 49.2963 40.8773C49.3167 41.0306 49.275 41.1856 49.1806 41.3084L46.8042 44.3901C46.7493 44.4611 46.6786 44.5186 46.5977 44.558C46.5168 44.5975 46.4278 44.6179 46.3377 44.6177Z" fill="white"/>
<path d="M107.099 70.9125H63.7186C63.1384 70.9118 62.5822 70.6824 62.1719 70.2744C61.7617 69.8665 61.5309 69.3134 61.5303 68.7365V44.5443C61.5309 43.9674 61.7617 43.4143 62.1719 43.0063C62.5822 42.5984 63.1384 42.3689 63.7186 42.3683H107.099C107.679 42.3689 108.235 42.5984 108.645 43.0063C109.056 43.4143 109.286 43.9674 109.287 44.5443V68.7365C109.286 69.3134 109.056 69.8665 108.645 70.2744C108.235 70.6824 107.679 70.9118 107.099 70.9125V70.9125ZM63.7186 42.6243C63.2067 42.6249 62.7159 42.8273 62.3539 43.1873C61.9919 43.5472 61.7883 44.0353 61.7877 44.5443V68.7365C61.7883 69.2455 61.9919 69.7335 62.3539 70.0935C62.7159 70.4534 63.2067 70.6559 63.7186 70.6565H107.099C107.611 70.6559 108.101 70.4534 108.463 70.0935C108.825 69.7335 109.029 69.2455 109.03 68.7365V44.5443C109.029 44.0353 108.825 43.5472 108.463 43.1873C108.101 42.8273 107.611 42.6249 107.099 42.6243H63.7186Z" fill="#3F3D56"/>
<path d="M96.1058 52.0085H87.7387C87.5851 52.0085 87.4377 52.0692 87.3291 52.1772C87.2204 52.2852 87.1594 52.4317 87.1594 52.5845C87.1594 52.7373 87.2204 52.8838 87.3291 52.9918C87.4377 53.0998 87.5851 53.1605 87.7387 53.1605H96.1058C96.2594 53.1605 96.4067 53.0998 96.5154 52.9918C96.624 52.8838 96.685 52.7373 96.685 52.5845C96.685 52.4317 96.624 52.2852 96.5154 52.1772C96.4067 52.0692 96.2594 52.0085 96.1058 52.0085V52.0085Z" fill="#3F3D56"/>
<path d="M104.262 55.6564H87.628C87.3692 55.6564 87.1594 55.915 87.1594 56.2324C87.1594 56.5499 87.3692 56.8084 87.628 56.8084H104.262C104.52 56.8084 104.73 56.5499 104.73 56.2324C104.73 55.915 104.52 55.6564 104.262 55.6564Z" fill="#3F3D56"/>
<path d="M104.262 59.3924H87.628C87.3692 59.3924 87.1594 59.651 87.1594 59.9684C87.1594 60.2858 87.3692 60.5444 87.628 60.5444H104.262C104.52 60.5444 104.73 60.2858 104.73 59.9684C104.73 59.651 104.52 59.3924 104.262 59.3924Z" fill="#3F3D56"/>
<path d="M81.3537 65.6004H66.9366C66.5782 65.6 66.2347 65.4583 65.9813 65.2063C65.7279 64.9544 65.5854 64.6127 65.585 64.2564V48.2563C65.5854 47.9 65.7279 47.5584 65.9813 47.3064C66.2347 47.0544 66.5782 46.9127 66.9366 46.9123H81.3537C81.712 46.9127 82.0556 47.0544 82.309 47.3064C82.5624 47.5584 82.7049 47.9 82.7053 48.2563V64.2564C82.7049 64.6127 82.5624 64.9544 82.309 65.2063C82.0556 65.4583 81.712 65.6 81.3537 65.6004V65.6004Z" fill="#6C63FF"/>
<path d="M108.128 47.3603C110.688 47.3603 112.763 45.2972 112.763 42.7523C112.763 40.2073 110.688 38.1442 108.128 38.1442C105.569 38.1442 103.494 40.2073 103.494 42.7523C103.494 45.2972 105.569 47.3603 108.128 47.3603Z" fill="#6C63FF"/>
<path d="M107.868 44.6177C107.742 44.6179 107.619 44.5773 107.518 44.5019L107.511 44.4972L106.191 43.4923C106.13 43.4458 106.079 43.3878 106.04 43.3214C106.001 43.2551 105.976 43.1819 105.966 43.1059C105.956 43.0299 105.961 42.9526 105.98 42.8786C106 42.8045 106.035 42.735 106.082 42.6742C106.129 42.6133 106.187 42.5622 106.254 42.5239C106.321 42.4855 106.394 42.4607 106.471 42.4507C106.547 42.4407 106.625 42.4458 106.699 42.4657C106.774 42.4856 106.844 42.5199 106.905 42.5666L107.76 43.2185L109.78 40.5985C109.827 40.5378 109.885 40.4868 109.952 40.4485C110.018 40.4102 110.092 40.3853 110.168 40.3753C110.245 40.3652 110.322 40.3703 110.397 40.3901C110.471 40.4099 110.541 40.444 110.602 40.4906L110.589 40.5076L110.602 40.4909C110.726 40.5851 110.806 40.724 110.827 40.8773C110.847 41.0306 110.805 41.1856 110.711 41.3084L108.334 44.3901C108.28 44.4611 108.209 44.5186 108.128 44.558C108.047 44.5975 107.958 44.6179 107.868 44.6177V44.6177Z" fill="white"/>
<path d="M74.6219 24.277C74.2973 24.268 73.8932 24.2567 73.5821 24.0307C73.4894 23.9606 73.4133 23.8712 73.359 23.7688C73.3047 23.6663 73.2736 23.5533 73.2678 23.4377C73.2622 23.3555 73.2758 23.2732 73.3075 23.1971C73.3392 23.121 73.3881 23.0532 73.4505 22.999C73.5433 22.9302 73.6518 22.8855 73.7664 22.8691C73.8809 22.8527 73.9978 22.8651 74.1063 22.9051L73.8412 20.979L74.0358 20.9525L74.3474 23.2169L74.1849 23.1428C73.9966 23.0569 73.738 23.0132 73.5773 23.1482C73.5378 23.1834 73.5071 23.2273 73.4875 23.2763C73.4678 23.3253 73.4598 23.3782 73.4641 23.4308C73.4689 23.5169 73.4922 23.6009 73.5326 23.6772C73.5729 23.7535 73.6293 23.8203 73.6979 23.8729C73.94 24.0489 74.2621 24.0716 74.6274 24.0818L74.6219 24.277Z" fill="white"/>
<path d="M72.8788 21.1451H71.821V21.3404H72.8788V21.1451Z" fill="white"/>
<path d="M76.2176 21.1451H75.1599V21.3404H76.2176V21.1451Z" fill="white"/>
<path d="M69.9836 18.4485C69.1319 18.3519 68.4722 17.5404 68.3998 16.717C68.3136 15.7374 68.8872 14.807 69.6743 14.2574C70.4974 13.6825 71.5229 13.4424 72.5151 13.3896C74.4507 13.2938 76.3529 13.9173 77.8518 15.1387C78.5953 15.7528 79.2897 16.5349 79.5528 17.4797C79.7814 18.3002 79.5954 19.2297 78.9318 19.8043C78.7676 19.9451 78.5759 20.0506 78.3687 20.114C78.1615 20.1775 77.9433 20.1975 77.7279 20.1729C77.213 20.1197 76.7379 19.8505 76.3266 19.5531C75.5266 18.9748 74.8699 18.169 73.8953 17.8668C73.1806 17.6452 72.2532 17.8402 71.8165 18.4829C71.7174 18.63 71.6532 18.7975 71.6287 18.9729C71.6197 19.0103 71.6253 19.0497 71.6444 19.0832C71.6635 19.1166 71.6947 19.1416 71.7316 19.1531C71.7693 19.1632 71.8094 19.1581 71.8433 19.1389C71.8772 19.1198 71.9022 19.0881 71.9128 19.0508C72.0274 18.2414 73.0283 17.9393 73.7306 18.1242C74.7547 18.3937 75.4421 19.3024 76.2823 19.8797C76.7172 20.2021 77.2295 20.4055 77.7682 20.4694C78.2352 20.5059 78.6988 20.3643 79.0647 20.0734C79.7825 19.5098 80.057 18.5404 79.8982 17.6677C79.7144 16.6571 79.0304 15.7909 78.2798 15.1203C76.7582 13.7751 74.7827 13.0495 72.7471 13.0879C71.7088 13.1116 70.6255 13.3247 69.731 13.8704C68.8634 14.3997 68.1928 15.2853 68.1051 16.3146C68.028 17.2206 68.5168 18.1683 69.356 18.5652C69.5538 18.6584 69.766 18.718 69.9837 18.7414C70.1717 18.7627 70.1702 18.4696 69.9837 18.4485H69.9836Z" fill="white"/>
<path d="M74.6219 61.9093C74.2973 61.9003 73.8932 61.889 73.5821 61.663C73.4894 61.5929 73.4133 61.5035 73.359 61.4011C73.3047 61.2987 73.2736 61.1857 73.2678 61.07C73.2622 60.9878 73.2758 60.9055 73.3075 60.8294C73.3392 60.7533 73.3881 60.6855 73.4505 60.6313C73.5433 60.5625 73.6518 60.5178 73.7664 60.5014C73.8809 60.485 73.9978 60.4974 74.1063 60.5375L73.8412 58.6113L74.0358 58.5848L74.3474 60.8492L74.1849 60.7751C73.9966 60.6892 73.738 60.6455 73.5773 60.7805C73.5378 60.8158 73.5071 60.8596 73.4875 60.9086C73.4678 60.9577 73.4598 61.0105 73.4641 61.0631C73.4689 61.1492 73.4922 61.2332 73.5326 61.3095C73.5729 61.3858 73.6293 61.4526 73.6979 61.5053C73.94 61.6812 74.2621 61.7039 74.6274 61.7141L74.6219 61.9093Z" fill="white"/>
<path d="M72.8788 58.7774H71.821V58.9727H72.8788V58.7774Z" fill="white"/>
<path d="M76.2176 58.7774H75.1599V58.9727H76.2176V58.7774Z" fill="white"/>
<path d="M69.9836 56.0808C69.1319 55.9842 68.4722 55.1727 68.3998 54.3493C68.3136 53.3697 68.8872 52.4394 69.6743 51.8897C70.4974 51.3148 71.5229 51.0748 72.5151 51.0219C74.4507 50.9261 76.3529 51.5496 77.8518 52.7711C78.5953 53.3851 79.2897 54.1673 79.5528 55.112C79.7814 55.9325 79.5954 56.862 78.9318 57.4366C78.7676 57.5774 78.5759 57.6829 78.3687 57.7463C78.1615 57.8098 77.9433 57.8298 77.7279 57.8052C77.213 57.752 76.7379 57.4828 76.3266 57.1855C75.5266 56.6071 74.8699 55.8013 73.8953 55.4991C73.1806 55.2775 72.2532 55.4726 71.8165 56.1152C71.7174 56.2623 71.6532 56.4298 71.6287 56.6052C71.6197 56.6426 71.6253 56.682 71.6444 56.7155C71.6635 56.7489 71.6947 56.7739 71.7316 56.7854C71.7693 56.7955 71.8094 56.7904 71.8433 56.7712C71.8772 56.7521 71.9022 56.7204 71.9128 56.6831C72.0274 55.8737 73.0283 55.5717 73.7306 55.7565C74.7547 56.026 75.4421 56.9347 76.2823 57.512C76.7172 57.8344 77.2295 58.0378 77.7682 58.1018C78.2352 58.1382 78.6988 57.9966 79.0647 57.7057C79.7825 57.1421 80.057 56.1728 79.8982 55.3C79.7144 54.2894 79.0304 53.4232 78.2798 52.7526C76.7582 51.4074 74.7827 50.6818 72.7471 50.7202C71.7088 50.7439 70.6255 50.957 69.731 51.5027C68.8634 52.032 68.1928 52.9176 68.1051 53.9469C68.028 54.853 68.5168 55.8006 69.356 56.1975C69.5538 56.2907 69.766 56.3503 69.9837 56.3737C70.1717 56.3951 70.1702 56.102 69.9837 56.0808H69.9836Z" fill="white"/>
<path d="M12.4481 61.9093C12.1234 61.9003 11.7194 61.889 11.4083 61.663C11.3156 61.5929 11.2394 61.5035 11.1851 61.4011C11.1309 61.2987 11.0998 61.1857 11.094 61.07C11.0884 60.9878 11.102 60.9055 11.1336 60.8294C11.1653 60.7533 11.2143 60.6855 11.2767 60.6313C11.3694 60.5625 11.478 60.5178 11.5926 60.5014C11.7071 60.485 11.824 60.4974 11.9325 60.5375L11.6674 58.6113L11.862 58.5848L12.1736 60.8492L12.0111 60.7751C11.8227 60.6892 11.5642 60.6455 11.4035 60.7805C11.364 60.8158 11.3333 60.8596 11.3136 60.9086C11.294 60.9577 11.286 61.0105 11.2903 61.0631C11.295 61.1492 11.3184 61.2332 11.3587 61.3095C11.3991 61.3858 11.4555 61.4526 11.5241 61.5053C11.7662 61.6812 12.0883 61.7039 12.4536 61.7141L12.4481 61.9093Z" fill="white"/>
<path d="M10.7052 58.7774H9.64746V58.9727H10.7052V58.7774Z" fill="white"/>
<path d="M14.0438 58.7774H12.9861V58.9727H14.0438V58.7774Z" fill="white"/>
<path d="M7.80982 56.0808C6.95805 55.9842 6.29838 55.1727 6.22592 54.3493C6.13973 53.3697 6.71342 52.4394 7.50049 51.8897C8.32358 51.3148 9.34907 51.0748 10.3413 51.0219C12.2768 50.9261 14.1791 51.5496 15.678 52.7711C16.4215 53.3851 17.1158 54.1673 17.379 55.112C17.6076 55.9325 17.4216 56.862 16.7579 57.4366C16.5938 57.5774 16.4021 57.6829 16.1948 57.7463C15.9876 57.8098 15.7695 57.8298 15.5541 57.8052C15.0392 57.752 14.5641 57.4828 14.1528 57.1855C13.3528 56.6071 12.6961 55.8013 11.7214 55.4991C11.0068 55.2775 10.0794 55.4726 9.6427 56.1152C9.54361 56.2623 9.47939 56.4298 9.4549 56.6052C9.44587 56.6426 9.45148 56.682 9.47058 56.7155C9.48968 56.7489 9.52085 56.7739 9.55777 56.7854C9.59543 56.7955 9.63558 56.7904 9.66949 56.7712C9.70341 56.7521 9.72837 56.7204 9.73896 56.6831C9.85361 55.8737 10.8545 55.5717 11.5568 55.7565C12.5808 56.026 13.2683 56.9347 14.1084 57.512C14.5433 57.8344 15.0557 58.0378 15.5944 58.1018C16.0614 58.1382 16.5249 57.9966 16.8909 57.7057C17.6086 57.1421 17.8831 56.1728 17.7244 55.3C17.5406 54.2894 16.8565 53.4232 16.106 52.7526C14.5843 51.4074 12.6089 50.6818 10.5733 50.7202C9.53498 50.7439 8.45165 50.957 7.55718 51.5027C6.68955 52.032 6.01894 52.9176 5.9313 53.9469C5.85415 54.853 6.343 55.8006 7.18215 56.1975C7.38 56.2907 7.59217 56.3503 7.80983 56.3737C7.99786 56.3951 7.99633 56.102 7.80983 56.0808H7.80982Z" fill="white"/>
<path d="M12.4481 24.5331C12.1234 24.5241 11.7194 24.5128 11.4083 24.2868C11.3156 24.2167 11.2394 24.1273 11.1851 24.0249C11.1309 23.9224 11.0998 23.8094 11.094 23.6938C11.0884 23.6116 11.102 23.5293 11.1336 23.4532C11.1653 23.3771 11.2143 23.3093 11.2767 23.2551C11.3694 23.1863 11.478 23.1416 11.5926 23.1252C11.7071 23.1088 11.824 23.1212 11.9325 23.1612L11.6674 21.2351L11.862 21.2086L12.1736 23.473L12.0111 23.3989C11.8227 23.313 11.5642 23.2693 11.4035 23.4043C11.364 23.4395 11.3333 23.4834 11.3136 23.5324C11.294 23.5814 11.286 23.6343 11.2903 23.6869C11.295 23.773 11.3184 23.857 11.3587 23.9333C11.3991 24.0096 11.4555 24.0764 11.5241 24.129C11.7662 24.305 12.0883 24.3277 12.4536 24.3379L12.4481 24.5331Z" fill="#3F3D56"/>
<path d="M10.7052 21.4012H9.64746V21.5965H10.7052V21.4012Z" fill="#3F3D56"/>
<path d="M14.0438 21.4012H12.9861V21.5965H14.0438V21.4012Z" fill="#3F3D56"/>
<path d="M7.80982 18.7045C6.95805 18.6079 6.29838 17.7964 6.22592 16.973C6.13973 15.9934 6.71342 15.0631 7.50049 14.5134C8.32358 13.9385 9.34907 13.6985 10.3413 13.6456C12.2768 13.5499 14.1791 14.1733 15.678 15.3948C16.4215 16.0088 17.1158 16.791 17.379 17.7357C17.6076 18.5562 17.4216 19.4857 16.7579 20.0603C16.5938 20.2012 16.4021 20.3066 16.1948 20.3701C15.9876 20.4335 15.7695 20.4535 15.5541 20.4289C15.0392 20.3757 14.5641 20.1065 14.1528 19.8092C13.3528 19.2308 12.6961 18.4251 11.7214 18.1228C11.0068 17.9012 10.0794 18.0963 9.6427 18.7389C9.54361 18.886 9.47939 19.0536 9.4549 19.2289C9.44587 19.2663 9.45148 19.3058 9.47058 19.3392C9.48968 19.3727 9.52085 19.3976 9.55777 19.4091C9.59543 19.4192 9.63558 19.4141 9.66949 19.395C9.70341 19.3758 9.72837 19.3441 9.73896 19.3068C9.85361 18.4974 10.8545 18.1954 11.5568 18.3802C12.5808 18.6497 13.2683 19.5584 14.1084 20.1357C14.5433 20.4582 15.0557 20.6615 15.5944 20.7255C16.0614 20.7619 16.5249 20.6203 16.8909 20.3294C17.6086 19.7658 17.8831 18.7965 17.7244 17.9237C17.5406 16.9131 16.8565 16.0469 16.106 15.3763C14.5843 14.0312 12.6089 13.3055 10.5733 13.3439C9.53498 13.3676 8.45165 13.5808 7.55718 14.1265C6.68955 14.6558 6.01894 15.5413 5.9313 16.5707C5.85415 17.4767 6.343 18.4243 7.18215 18.8213C7.38 18.9145 7.59217 18.974 7.80983 18.9975C7.99786 19.0188 7.99633 18.7257 7.80983 18.7045H7.80982Z" fill="#3F3D56"/>
</g>
<defs>
<clipPath id="clip0_21_162">
<rect width="112.762" height="70.9125" fill="white"/>
</clipPath>
</defs>
</svg>
