<svg width="136" height="77" viewBox="0 0 136 77" fill="none" xmlns="http://www.w3.org/2000/svg">
<path d="M0.107369 28.6043C0.418391 27.731 1.28574 27.2155 2.16884 27.3145C2.53687 27.3558 2.90458 27.3886 3.27427 27.3668C12.4949 26.8246 23.9155 32.1041 36.0731 39.3341C24.9435 30.3285 14.7573 22.3621 2.77693 30.5488C1.92119 31.1336 0.708773 30.9271 0.210992 30.018C0.0110131 29.6528 -0.0612162 29.2151 0.0580402 28.7636C0.0721107 28.7103 0.0885373 28.6572 0.107373 28.6043H0.107369V28.6043V28.6043Z" fill="#3F3D56"/>
<path d="M61.6044 7.00362C62.3644 7.48817 62.6772 8.4097 62.4238 9.23119L62.3952 9.32388C62.1413 10.1486 61.5884 10.8414 60.8559 11.2975C50.3714 17.8245 62.5102 26.1776 43.1062 39.6606V39.6606C52.5025 29.606 60.2312 6.32155 61.4053 6.8922C61.4729 6.92507 61.5394 6.96218 61.6044 7.00362H61.6044V7.00362Z" fill="#3F3D56"/>
<path d="M77.6748 58.0437C77.2839 58.8559 76.406 59.2758 75.5603 59.1218L75.4648 59.1044C74.6159 58.9502 73.8623 58.4834 73.3225 57.8102C65.597 48.1746 58.7439 61.2192 43.053 43.5528H43.053C54.1519 51.6892 78.1891 56.5993 77.7618 57.8328C77.7372 57.9039 77.7083 57.9743 77.6748 58.0437V58.0438H77.6748V58.0437Z" fill="#3F3D56"/>
<path d="M63.5544 57.4417C63.1521 57.665 62.5031 57.6337 61.9793 57.3915L61.9202 57.3642C61.3942 57.1213 60.9872 56.7804 60.7572 56.4077C57.4643 51.0727 50.6273 54.5347 43.594 44.4216H43.594C49.3597 49.9204 64.1519 57.0052 63.6494 57.3806C63.6205 57.4022 63.5888 57.4226 63.5544 57.4417V57.4417Z" fill="#3F3D56"/>
<path d="M66.7273 36.1621C66.6278 36.6114 66.1742 37.0765 65.6456 37.3082L65.586 37.3343C65.0554 37.5671 64.5304 37.6459 64.0988 37.5711C57.9216 36.5002 55.9817 43.9142 43.7476 42.4767H43.7476C51.6866 41.8046 66.7965 35.4254 66.7445 36.0504C66.7415 36.0864 66.7358 36.1237 66.7273 36.1621H66.7273Z" fill="#3F3D56"/>
<path d="M4.906 64.0294C4.46254 63.2447 4.61915 62.2842 5.2286 61.6779L5.29735 61.6095C5.90878 61.0006 6.72232 60.6486 7.58321 60.5899C19.9049 59.7507 13.1101 46.6756 36.5731 43.8835V43.8836C23.5557 48.3482 5.7981 65.2764 5.02945 64.2213C4.98518 64.1605 4.94393 64.0965 4.906 64.0294V64.0294V64.0294Z" fill="#3F3D56"/>
<path d="M54.4584 63.8885C54.0026 64.1926 53.4176 64.132 53.0285 63.7777L52.9846 63.7378C52.5939 63.3824 52.3501 62.8923 52.2814 62.3618C51.2975 54.7688 43.6801 59.4675 41.0869 45.0539H41.0869C44.283 52.9405 55.1754 63.2893 54.5692 63.8049C54.5343 63.8346 54.4973 63.8625 54.4584 63.8885H54.4584Z" fill="#3F3D56"/>
<path d="M40.6582 76.3773C39.96 76.383 39.3724 75.9137 39.1962 75.2696L39.1763 75.1969C38.9992 74.5506 39.0724 73.8635 39.3613 73.2549C43.4972 64.5452 32.091 64.2362 39.1619 47.2001H39.1619C37.2043 57.7528 41.8392 76.2405 40.8346 76.3656C40.7768 76.3728 40.7179 76.3768 40.6582 76.3773V76.3773H40.6582Z" fill="#6C63FF"/>
<path d="M15.3882 64.4744C14.9384 63.9405 14.925 63.1885 15.3086 62.642L15.3519 62.5803C15.7367 62.0316 16.3124 61.6496 16.9654 61.4839C26.3112 59.1127 19.2728 50.1318 36.9029 44.7092V44.7092C27.5275 49.9335 16.2469 65.2967 15.5097 64.6029C15.4673 64.5629 15.4267 64.5201 15.3882 64.4744H15.3882Z" fill="#6C63FF"/>
<path d="M21.0588 56.6773C20.7743 56.4115 20.7666 56.0116 21.0104 55.7047L21.0379 55.6701C21.2824 55.362 21.6478 55.1348 22.0618 55.0196C27.9879 53.3711 23.5373 48.8792 34.7175 45.2637C28.7694 48.4328 21.6021 57.0796 21.1356 56.7406C21.1088 56.7211 21.0831 56.7 21.0588 56.6773V56.6773Z" fill="#6C63FF"/>
<path d="M29.3465 62.3596C28.9867 62.2108 28.839 61.8391 28.9594 61.4661L28.973 61.424C29.0936 61.0496 29.3558 60.7085 29.703 60.4552C34.6718 56.8292 28.9265 54.1879 38.123 46.874C33.6679 51.9313 29.9965 62.5454 29.4407 62.3919C29.4087 62.3831 29.3772 62.3723 29.3465 62.3596V62.3596Z" fill="#3F3D56"/>
<path d="M5.10061 37.1678L6.00436 39.9493H8.92899L6.56292 41.6684L7.46668 44.4499L5.10061 42.7308L2.73453 44.4499L3.63829 41.6684L1.27222 39.9493H4.19685L5.10061 37.1678Z" fill="#6C63FF"/>
<path d="M45.4036 3.83081L46.3073 6.6123H49.232L46.8659 8.33135L47.7697 11.1128L45.4036 9.39378L43.0375 11.1128L43.9413 8.33135L41.5752 6.6123H44.4998L45.4036 3.83081Z" fill="#3F3D56"/>
<path d="M66.7991 33.6849L67.7029 36.4664H70.6275L68.2614 38.1854L69.1652 40.9669L66.7991 39.2479L64.433 40.9669L65.3368 38.1854L62.9707 36.4664H65.8953L66.7991 33.6849Z" fill="#6C63FF"/>
<path d="M23.5105 64.0365L24.4143 66.818H27.3389L24.9728 68.537L25.8766 71.3185L23.5105 69.5995L21.1444 71.3185L22.0482 68.537L19.6821 66.818H22.6068L23.5105 64.0365Z" fill="#6C63FF"/>
<path d="M39.9304 33.6849L40.8342 36.4664H43.7588L41.3928 38.1854L42.2965 40.9669L39.9304 39.2479L37.5644 40.9669L38.4681 38.1854L36.1021 36.4664H39.0267L39.9304 33.6849Z" fill="#6C63FF"/>
<path d="M62.5103 3.83081L63.414 6.6123H66.3387L63.9726 8.33135L64.8763 11.1128L62.5103 9.39379L60.1442 11.1128L61.048 8.33135L58.6819 6.6123H61.6065L62.5103 3.83081Z" fill="#3F3D56"/>
<path d="M3.56777 58.8034L4.71387 61.4941L7.62705 61.2356L5.4222 63.1571L6.5683 65.8478L4.05953 64.3446L1.85468 66.2661L2.50902 63.4156L0.000244141 61.9124L2.91342 61.6539L3.56777 58.8034Z" fill="#3F3D56"/>
<path d="M28.587 7.41409C29.1145 7.15438 29.7074 7.32957 30.0431 7.80015L30.081 7.85324C30.4181 8.32538 30.5783 8.92269 30.5502 9.53359C30.1479 18.2772 38.8932 14.3687 38.8788 31.099H38.8788C37.0511 21.6203 27.7344 7.95892 28.4568 7.48819C28.4984 7.46107 28.5418 7.43631 28.587 7.41409H28.587Z" fill="#6C63FF"/>
<path d="M20.9602 20.3742C21.1941 20.0822 21.5778 20.042 21.8912 20.2481L21.9266 20.2713C22.2412 20.478 22.4872 20.806 22.6293 21.1896C24.6631 26.6788 28.6424 22.0836 32.9648 32.3978C29.4682 27.0131 20.6147 20.9231 20.9052 20.4524C20.9219 20.4253 20.9403 20.3991 20.9603 20.3742L20.9602 20.3742Z" fill="#3F3D56"/>
<path d="M14.2287 36.3295C14.2607 35.9568 14.5573 35.71 14.9324 35.7071L14.9747 35.7067C15.3511 35.7036 15.738 35.8395 16.0693 36.0792C20.8117 39.5111 21.5644 33.4792 30.8917 39.6492C24.9915 37.1175 14.2467 36.9778 14.2264 36.4251C14.2252 36.3933 14.2259 36.3614 14.2287 36.3295H14.2287Z" fill="#3F3D56"/>
<path d="M85.1134 16.1186C85.3158 15.5503 85.8801 15.2149 86.4547 15.2794C86.6941 15.3062 86.9334 15.3276 87.1739 15.3134C93.1732 14.9606 100.604 18.3956 108.514 23.0998C101.273 17.2404 94.6452 12.0571 86.8503 17.3838C86.2935 17.7642 85.5047 17.6298 85.1808 17.0384C85.0507 16.8007 85.0037 16.5159 85.0813 16.2222C85.0905 16.1876 85.1012 16.153 85.1134 16.1186L85.1134 16.1186Z" fill="#3F3D56"/>
<path d="M125.126 2.06437C125.62 2.37964 125.824 2.97921 125.659 3.51371L125.64 3.57402C125.475 4.11059 125.115 4.56138 124.639 4.8581C117.817 9.10487 125.715 14.5397 113.09 23.3122C119.204 16.7703 124.232 1.62058 124.996 1.99187C125.04 2.01326 125.083 2.0374 125.126 2.06437V2.06437Z" fill="#3F3D56"/>
<path d="M135.582 35.273C135.327 35.8015 134.756 36.0747 134.206 35.9744L134.144 35.9631C133.591 35.8628 133.101 35.5591 132.75 35.1211C127.723 28.8518 123.265 37.3391 113.055 25.8447H113.055C120.277 31.1385 135.916 34.3332 135.638 35.1358C135.622 35.182 135.603 35.2278 135.582 35.273L135.582 35.273Z" fill="#3F3D56"/>
<path d="M126.394 34.8813C126.133 35.0266 125.71 35.0062 125.37 34.8486L125.331 34.8309C124.989 34.6728 124.724 34.451 124.574 34.2085C122.432 30.7374 117.984 32.9898 113.407 26.4099C117.159 29.9876 126.783 34.5973 126.456 34.8415C126.437 34.8556 126.417 34.8689 126.394 34.8813V34.8813Z" fill="#3F3D56"/>
<path d="M128.459 21.036C128.394 21.3283 128.099 21.6309 127.755 21.7816L127.716 21.7987C127.371 21.9501 127.029 22.0014 126.749 21.9527C122.73 21.2559 121.467 26.0798 113.507 25.1445C118.673 24.7072 128.504 20.5566 128.47 20.9633C128.468 20.9867 128.464 21.011 128.459 21.036V21.036Z" fill="#3F3D56"/>
<path d="M88.2357 39.1675C87.9471 38.6569 88.049 38.032 88.4456 37.6375L88.4903 37.593C88.8881 37.1968 89.4174 36.9678 89.9776 36.9296C97.9945 36.3836 93.5736 27.8764 108.839 26.0598C100.37 28.9647 88.8161 39.9788 88.316 39.2923C88.2872 39.2528 88.2604 39.2111 88.2357 39.1675V39.1675Z" fill="#3F3D56"/>
<path d="M120.476 39.0758C120.18 39.2736 119.799 39.2342 119.546 39.0037L119.517 38.9777C119.263 38.7465 119.104 38.4276 119.06 38.0825C118.42 33.1422 113.463 36.1993 111.776 26.8213C113.856 31.9526 120.943 38.686 120.548 39.0214C120.526 39.0407 120.501 39.0589 120.476 39.0758L120.476 39.0758Z" fill="#3F3D56"/>
<path d="M111.497 47.2015C111.043 47.2052 110.661 46.8999 110.546 46.4808L110.533 46.4335C110.418 46.0129 110.465 45.5659 110.653 45.17C113.344 39.5031 105.923 39.302 110.524 28.2177V28.2177C109.25 35.0837 112.266 47.1125 111.612 47.1939C111.574 47.1986 111.536 47.2012 111.497 47.2015V47.2015Z" fill="#6C63FF"/>
<path d="M95.0558 39.4571C94.7631 39.1096 94.7544 38.6204 95.004 38.2648L95.0322 38.2247C95.2825 37.8676 95.6571 37.6191 96.082 37.5113C102.163 35.9685 97.5833 30.1252 109.054 26.597C102.954 29.9962 95.6145 39.992 95.1349 39.5406C95.1072 39.5146 95.0808 39.4868 95.0558 39.457V39.4571Z" fill="#6C63FF"/>
<path d="M98.7451 34.3839C98.56 34.211 98.555 33.9509 98.7136 33.7512L98.7315 33.7287C98.8906 33.5282 99.1283 33.3804 99.3977 33.3054C103.253 32.2328 100.358 29.3102 107.632 26.9578C103.762 29.0198 99.0986 34.6458 98.7951 34.4252C98.7776 34.4125 98.7609 34.3987 98.7451 34.3839V34.3839Z" fill="#6C63FF"/>
<path d="M104.138 38.081C103.903 37.9842 103.807 37.7424 103.886 37.4997L103.895 37.4723C103.973 37.2287 104.144 37.0068 104.37 36.842C107.602 34.4827 103.864 32.7642 109.848 28.0055C106.949 31.296 104.56 38.2019 104.199 38.1021C104.178 38.0963 104.158 38.0893 104.138 38.081V38.081Z" fill="#3F3D56"/>
<path d="M88.3622 21.6904L88.9502 23.5001H90.8531L89.3137 24.6186L89.9017 26.4283L88.3622 25.3099L86.8228 26.4283L87.4108 24.6186L85.8713 23.5001H87.7742L88.3622 21.6904Z" fill="#6C63FF"/>
<path d="M114.585 0L115.173 1.80974H117.076L115.536 2.92822L116.124 4.73797L114.585 3.61948L113.045 4.73797L113.633 2.92822L112.094 1.80974H113.997L114.585 0Z" fill="#3F3D56"/>
<path d="M128.506 19.4242L129.094 21.2339H130.996L129.457 22.3524L130.045 24.1622L128.506 23.0437L126.966 24.1622L127.554 22.3524L126.015 21.2339H127.918L128.506 19.4242Z" fill="#6C63FF"/>
<path d="M100.341 39.1721L100.929 40.9819H102.831L101.292 42.1003L101.88 43.9101L100.341 42.7916L98.801 43.9101L99.3891 42.1003L97.8496 40.9819H99.7525L100.341 39.1721Z" fill="#6C63FF"/>
<path d="M111.024 19.4242L111.612 21.2339H113.514L111.975 22.3524L112.563 24.1622L111.024 23.0437L109.484 24.1622L110.072 22.3524L108.533 21.2339H110.436L111.024 19.4242Z" fill="#6C63FF"/>
<path d="M125.715 0L126.303 1.80974H128.206L126.666 2.92822L127.254 4.73797L125.715 3.61948L124.176 4.73797L124.764 2.92822L123.224 1.80974H125.127L125.715 0Z" fill="#3F3D56"/>
<path d="M87.3649 35.7673L88.1106 37.5179L90.006 37.3497L88.5714 38.5999L89.3171 40.3506L87.6848 39.3726L86.2503 40.6228L86.676 38.7681L85.0437 37.7901L86.9391 37.6219L87.3649 35.7673Z" fill="#3F3D56"/>
<path d="M103.643 2.33141C103.987 2.16242 104.372 2.27641 104.591 2.58259L104.615 2.61713C104.835 2.92432 104.939 3.31295 104.921 3.71042C104.659 9.39936 110.349 6.85637 110.34 17.7417C109.15 11.5745 103.089 2.68589 103.559 2.37961C103.586 2.36197 103.614 2.34585 103.643 2.3314V2.33141Z" fill="#6C63FF"/>
<path d="M98.6812 10.7638C98.8334 10.5738 99.083 10.5476 99.287 10.6817L99.31 10.6968C99.5147 10.8313 99.6748 11.0448 99.7672 11.2943C101.09 14.8658 103.68 11.876 106.492 18.5868C104.217 15.0833 98.4564 11.1209 98.6454 10.8147C98.6563 10.797 98.6682 10.78 98.6813 10.7638L98.6812 10.7638Z" fill="#3F3D56"/>
<path d="M94.3012 21.1449C94.322 20.9024 94.515 20.7419 94.759 20.7399L94.7865 20.7397C95.0315 20.7377 95.2832 20.8261 95.4988 20.9821C98.5843 23.215 99.0741 19.2904 105.143 23.3048C101.304 21.6577 94.3129 21.5668 94.2997 21.2071C94.2989 21.1864 94.2994 21.1657 94.3012 21.1449V21.1449Z" fill="#3F3D56"/>
</svg>
