<svg width="134" height="70" viewBox="0 0 134 70" fill="none" xmlns="http://www.w3.org/2000/svg">
<g clip-path="url(#clip0_21_161)">
<path d="M66.8438 61.7411C103.761 61.7411 133.688 60.904 133.688 59.8713C133.688 58.8387 103.761 58.0016 66.8438 58.0016C29.927 58.0016 0 58.8387 0 59.8713C0 60.904 29.927 61.7411 66.8438 61.7411Z" fill="#E6E6E6"/>
<path d="M102.467 39.6113C102.382 39.6125 102.298 39.6136 102.212 39.6136C102.127 39.6136 102.042 39.6125 101.958 39.6113C97.4834 39.5096 94.2402 36.7138 95.0658 33.7805L97.0787 26.6248L97.5875 24.8141L106.606 24.9679L107.154 26.7392L109.311 33.7112C110.225 36.6606 106.982 39.5096 102.467 39.6113Z" fill="#3F3D56"/>
<path opacity="0.2" d="M107.154 26.7392C105.616 27.6182 103.872 28.071 102.101 28.0509C100.33 28.0308 98.5962 27.5385 97.0789 26.6248L97.5876 24.8141L106.606 24.9679L107.154 26.7392Z" fill="black"/>
<path d="M106.773 34.018C107.163 32.5661 108.443 30.4716 112.034 27.9462C118.297 23.5413 114.561 20.2385 114.399 20.1001C114.059 19.8099 114.11 19.4839 114.516 19.3726C114.752 19.3254 114.995 19.3292 115.229 19.3838C115.463 19.4383 115.683 19.5423 115.874 19.6888C116.077 19.8565 120.755 23.8514 113.688 28.8212C107.328 33.2945 108.681 36.2146 108.696 36.2426C108.867 36.5549 108.593 36.8048 108.085 36.8014C107.577 36.7981 107.027 36.5424 106.856 36.2304C106.82 36.1644 106.411 35.3697 106.773 34.018Z" fill="#3F3D56"/>
<path d="M98.0501 40.6542C97.9135 40.6542 97.7781 40.6273 97.6519 40.575C97.5256 40.5227 97.4109 40.4461 97.3143 40.3495C97.2177 40.2528 97.141 40.1381 97.0887 40.0119C97.0364 39.8856 97.0095 39.7503 97.0095 39.6136V35.1044C97.0095 34.8284 97.1192 34.5638 97.3143 34.3686C97.5095 34.1735 97.7741 34.0638 98.0501 34.0638C98.3261 34.0638 98.5908 34.1735 98.7859 34.3686C98.9811 34.5638 99.0907 34.8284 99.0907 35.1044V39.6136C99.0907 39.7503 99.0638 39.8856 99.0115 40.0119C98.9592 40.1381 98.8826 40.2528 98.7859 40.3495C98.6893 40.4461 98.5746 40.5227 98.4483 40.575C98.3221 40.6273 98.1868 40.6542 98.0501 40.6542V40.6542Z" fill="#3F3D56"/>
<path d="M98.9625 29.9491C98.9053 30.0733 98.8243 30.185 98.7241 30.2778C98.6238 30.3706 98.5062 30.4428 98.378 30.4902C98.2499 30.5376 98.1136 30.5593 97.9771 30.554C97.8405 30.5488 97.7063 30.5167 97.5822 30.4595L93.4858 28.5748C93.2353 28.4593 93.041 28.2491 92.9455 27.9903C92.85 27.7316 92.8611 27.4455 92.9764 27.195C93.0916 26.9445 93.3016 26.7499 93.5603 26.6541C93.8189 26.5583 94.105 26.5691 94.3556 26.6841L98.4521 28.5689C98.5762 28.626 98.6879 28.707 98.7807 28.8073C98.8736 28.9075 98.9457 29.0251 98.9931 29.1533C99.0405 29.2815 99.0622 29.4177 99.057 29.5543C99.0517 29.6908 99.0196 29.825 98.9625 29.9491V29.9491Z" fill="#3F3D56"/>
<path d="M105.462 29.9492C105.519 30.0733 105.6 30.185 105.701 30.2778C105.801 30.3707 105.919 30.4428 106.047 30.4902C106.175 30.5376 106.311 30.5593 106.448 30.5541C106.584 30.5488 106.718 30.5167 106.843 30.4596L110.939 28.5748C111.19 28.4595 111.384 28.2493 111.48 27.9904C111.576 27.7316 111.565 27.4453 111.449 27.1946C111.334 26.9439 111.124 26.7492 110.865 26.6535C110.606 26.5578 110.32 26.5688 110.069 26.6842L105.973 28.5689C105.849 28.626 105.737 28.707 105.644 28.8073C105.551 28.9076 105.479 29.0252 105.432 29.1533C105.384 29.2815 105.363 29.4177 105.368 29.5543C105.373 29.6909 105.405 29.825 105.462 29.9492V29.9492Z" fill="#3F3D56"/>
<path d="M106.375 40.6542C106.511 40.6542 106.647 40.6273 106.773 40.575C106.899 40.5227 107.014 40.4461 107.111 40.3495C107.207 40.2528 107.284 40.1381 107.336 40.0119C107.388 39.8856 107.415 39.7503 107.415 39.6136V35.1044C107.415 34.8284 107.306 34.5638 107.11 34.3686C106.915 34.1735 106.651 34.0638 106.375 34.0638C106.099 34.0638 105.834 34.1735 105.639 34.3686C105.444 34.5638 105.334 34.8284 105.334 35.1044V39.6136C105.334 39.7503 105.361 39.8856 105.413 40.0119C105.466 40.1381 105.542 40.2528 105.639 40.3495C105.736 40.4461 105.85 40.5227 105.976 40.575C106.103 40.6273 106.238 40.6542 106.375 40.6542V40.6542Z" fill="#3F3D56"/>
<path d="M110.723 11.4617C110.813 11.3484 110.878 11.2174 110.914 11.0772C110.95 10.937 110.955 10.7909 110.93 10.6485L110.364 7.31677L109.797 3.9851C109.767 3.80521 109.689 3.63654 109.573 3.49604C109.456 3.35554 109.305 3.24817 109.134 3.18471C108.963 3.12125 108.778 3.10393 108.598 3.13451C108.418 3.16509 108.25 3.24248 108.109 3.35891L105.507 5.51521L103.939 6.81431C102.894 6.62839 101.825 6.61228 100.775 6.76659L99.2645 5.51521L96.6624 3.35891C96.5219 3.24248 96.3532 3.16509 96.1733 3.13452C95.9934 3.10394 95.8087 3.12125 95.6376 3.18471C95.4665 3.24817 95.3151 3.35555 95.1987 3.49604C95.0823 3.63654 95.0049 3.80521 94.9743 3.9851L94.408 7.31678L93.8416 10.6485C93.8114 10.8236 93.827 11.0035 93.887 11.1708C92.9164 12.6587 92.3622 14.3795 92.2821 16.1541C92.202 17.9288 92.5988 19.6925 93.4313 21.2618C94.2639 22.8311 95.5017 24.1487 97.016 25.0774C98.5304 26.0062 100.266 26.5123 102.042 26.543C103.818 26.5736 105.57 26.1278 107.116 25.2519C108.661 24.376 109.944 23.102 110.83 21.5624C111.716 20.0228 112.174 18.2739 112.155 16.4975C112.136 14.7211 111.642 12.9822 110.723 11.4617V11.4617Z" fill="#3F3D56"/>
<path d="M96.4017 4.72418C96.34 4.72427 96.2788 4.73538 96.221 4.75698C96.136 4.78792 96.0608 4.84094 96.003 4.91058C95.9453 4.98022 95.9072 5.06398 95.8925 5.15324L95.2058 9.19354C95.1906 9.2826 95.1992 9.37408 95.2306 9.45878C95.262 9.54347 95.3152 9.61841 95.3848 9.67605C95.4543 9.73369 95.5379 9.772 95.6269 9.78713C95.716 9.80227 95.8075 9.7937 95.8921 9.76227L99.7345 8.33688C99.8192 8.30546 99.8941 8.25231 99.9518 8.18276C100.009 8.11321 100.048 8.02971 100.063 7.94067C100.078 7.85162 100.069 7.76015 100.038 7.67546C100.007 7.59078 99.9534 7.51585 99.8839 7.45821L99.8838 7.4581L96.7283 4.84325C96.6367 4.76654 96.5212 4.7244 96.4017 4.72418V4.72418Z" fill="#E6E6E6"/>
<path d="M108.37 4.72418C108.251 4.7244 108.135 4.76654 108.044 4.84325L104.888 7.45821C104.818 7.51585 104.765 7.59078 104.734 7.67546C104.702 7.76015 104.694 7.85162 104.709 7.94067C104.724 8.02971 104.763 8.11321 104.82 8.18276C104.878 8.25231 104.953 8.30546 105.037 8.33688L108.88 9.76227C108.964 9.7937 109.056 9.80227 109.145 9.78713C109.234 9.772 109.318 9.73369 109.387 9.67605C109.457 9.61841 109.51 9.54347 109.541 9.45878C109.573 9.37408 109.581 9.2826 109.566 9.19354L108.879 5.15324C108.865 5.06398 108.827 4.98022 108.769 4.91058C108.711 4.84094 108.636 4.78792 108.551 4.75698C108.493 4.73538 108.432 4.72427 108.37 4.72418Z" fill="#E6E6E6"/>
<path d="M102.212 19.38C102.979 19.38 103.6 18.7588 103.6 17.9926C103.6 17.2263 102.979 16.6051 102.212 16.6051C101.446 16.6051 100.825 17.2263 100.825 17.9926C100.825 18.7588 101.446 19.38 102.212 19.38Z" fill="#E6E6E6"/>
<path d="M102.212 17.6457C102.723 17.6457 103.137 17.4905 103.137 17.2989C103.137 17.1073 102.723 16.952 102.212 16.952C101.701 16.952 101.287 17.1073 101.287 17.2989C101.287 17.4905 101.701 17.6457 102.212 17.6457Z" fill="#3F3D56"/>
<path d="M101.519 18.8019H102.791V20.3628C102.791 20.4463 102.774 20.529 102.742 20.6061C102.71 20.6833 102.663 20.7534 102.604 20.8124C102.545 20.8715 102.475 20.9183 102.398 20.9503C102.321 20.9822 102.238 20.9987 102.155 20.9987V20.9987C101.986 20.9987 101.824 20.9317 101.705 20.8124C101.586 20.6932 101.519 20.5314 101.519 20.3628V18.8019H101.519Z" fill="#FF6584"/>
<path d="M102.29 3.06445C102.223 3.20275 102.158 3.34255 102.097 3.48521C101.38 5.15867 101.138 6.99763 101.398 8.79975C101.528 8.61088 101.665 8.4141 101.804 8.21516C101.506 6.48559 101.674 4.70787 102.29 3.06445V3.06445Z" fill="#3F3D56"/>
<path d="M103.33 4.33624C103.264 4.47454 103.199 4.61434 103.138 4.757C102.42 6.43046 102.178 8.26943 102.439 10.0715C102.569 9.88268 102.706 9.6859 102.845 9.48696C102.547 7.75738 102.714 5.97966 103.33 4.33624V4.33624Z" fill="#3F3D56"/>
<path d="M106.538 29.3048L106.392 27.4406L106.245 25.5763C106.237 25.4757 106.203 25.3789 106.146 25.2956C106.089 25.2124 106.011 25.1457 105.919 25.1023C105.828 25.0588 105.727 25.0401 105.627 25.048C105.526 25.0559 105.429 25.0902 105.346 25.1474L103.805 26.2064L102.679 26.9798C102.608 26.8956 102.518 26.828 102.418 26.7816C102.317 26.7352 102.208 26.7112 102.097 26.7112C101.986 26.7112 101.877 26.7352 101.776 26.7816C101.675 26.828 101.586 26.8956 101.514 26.9798L100.389 26.2064L98.8476 25.1473C98.7644 25.0902 98.6676 25.0559 98.5669 25.048C98.4663 25.0401 98.3653 25.0588 98.2742 25.1023C98.183 25.1457 98.105 25.2124 98.0478 25.2956C97.9906 25.3789 97.9563 25.4757 97.9484 25.5763L97.8018 27.4406L97.6552 29.3048C97.6473 29.4055 97.666 29.5065 97.7095 29.5976C97.753 29.6887 97.8197 29.7668 97.9029 29.824C97.9861 29.8812 98.0829 29.9154 98.1836 29.9233C98.2842 29.9313 98.3852 29.9125 98.4763 29.8691L100.164 29.0639L101.551 28.4023C101.622 28.4746 101.707 28.532 101.801 28.5712C101.895 28.6104 101.995 28.6306 102.097 28.6306C102.198 28.6306 102.299 28.6104 102.393 28.5712C102.486 28.532 102.571 28.4746 102.643 28.4023L104.03 29.0639L105.717 29.8691C105.808 29.9125 105.909 29.9313 106.01 29.9234C106.111 29.9154 106.208 29.8812 106.291 29.824C106.374 29.7668 106.441 29.6887 106.484 29.5976C106.528 29.5065 106.546 29.4055 106.538 29.3048V29.3048Z" fill="#7863FF"/>
<path d="M100.362 16.8364C100.554 16.8364 100.709 16.6811 100.709 16.4895C100.709 16.2979 100.554 16.1426 100.362 16.1426C100.171 16.1426 100.016 16.2979 100.016 16.4895C100.016 16.6811 100.171 16.8364 100.362 16.8364Z" fill="#E6E6E6"/>
<path d="M104.062 16.8364C104.254 16.8364 104.409 16.6811 104.409 16.4895C104.409 16.2979 104.254 16.1426 104.062 16.1426C103.871 16.1426 103.716 16.2979 103.716 16.4895C103.716 16.6811 103.871 16.8364 104.062 16.8364Z" fill="#E6E6E6"/>
<path d="M35.0995 36.547C35.1839 36.5481 35.2683 36.5493 35.3538 36.5493C35.4394 36.5493 35.5238 36.5481 35.6082 36.547C40.0827 36.4452 43.3259 33.6495 42.5003 30.7162L40.4874 23.5604L39.9787 21.7498L30.9602 21.9036L30.4122 23.6749L28.2547 30.6468C27.3413 33.5963 30.5845 36.4452 35.0995 36.547Z" fill="#3F3D56"/>
<path opacity="0.2" d="M30.4122 23.6749C31.9499 24.5539 33.6943 25.0067 35.4654 24.9866C37.2365 24.9664 38.9701 24.4741 40.4874 23.5604L39.9787 21.7498L30.9603 21.9036L30.4122 23.6749Z" fill="black"/>
<path d="M29.6975 30.1055C28.7241 28.9599 26.6706 27.6147 22.3445 26.8688C14.7995 25.5672 16.7628 20.9835 16.8499 20.7891C17.0326 20.3815 16.8478 20.1084 16.4332 20.1815C16.1998 20.2398 15.9816 20.3473 15.7932 20.4968C15.6047 20.6464 15.4505 20.8345 15.3407 21.0485C15.2292 21.2869 12.7104 26.8993 21.2241 28.3673C28.8863 29.6891 28.9137 32.9069 28.9117 32.9389C28.8913 33.2941 29.2452 33.403 29.703 33.1825C30.1607 32.9621 30.5488 32.4955 30.5698 32.1403C30.5741 32.0653 30.6039 31.1719 29.6975 30.1055Z" fill="#3F3D56"/>
<path d="M39.5162 37.5899C39.6528 37.5899 39.7881 37.563 39.9144 37.5107C40.0406 37.4584 40.1554 37.3817 40.252 37.2851C40.3486 37.1885 40.4253 37.0738 40.4776 36.9475C40.5298 36.8212 40.5568 36.6859 40.5568 36.5493V32.0401C40.5564 31.7643 40.4466 31.5 40.2515 31.3051C40.0564 31.1102 39.7919 31.0007 39.5162 31.0007C39.2404 31.0007 38.9759 31.1102 38.7808 31.3051C38.5857 31.5 38.4759 31.7643 38.4756 32.0401V36.5493C38.4756 36.6859 38.5025 36.8212 38.5548 36.9475C38.6071 37.0738 38.6837 37.1885 38.7804 37.2851C38.877 37.3817 38.9917 37.4584 39.118 37.5107C39.2442 37.563 39.3795 37.5899 39.5162 37.5899V37.5899Z" fill="#3F3D56"/>
<path d="M38.6037 26.8848C38.6608 27.0089 38.7418 27.1206 38.8421 27.2134C38.9424 27.3063 39.0599 27.3784 39.1881 27.4258C39.3163 27.4732 39.4525 27.4949 39.5891 27.4896C39.7256 27.4844 39.8598 27.4523 39.984 27.3952L44.0804 25.5104C44.2047 25.4534 44.3165 25.3724 44.4095 25.2722C44.5025 25.1719 44.5748 25.0543 44.6223 24.9261C44.6698 24.7978 44.6915 24.6615 44.6863 24.5248C44.6811 24.3882 44.649 24.2539 44.5918 24.1297C44.5346 24.0055 44.4536 23.8937 44.3532 23.8009C44.2528 23.708 44.1351 23.6358 44.0069 23.5884C43.8786 23.5411 43.7422 23.5195 43.6056 23.5249C43.4689 23.5302 43.3347 23.5625 43.2105 23.6198L39.1141 25.5045C38.9899 25.5616 38.8783 25.6426 38.7854 25.7429C38.6926 25.8432 38.6204 25.9607 38.573 26.0889C38.5256 26.2171 38.5039 26.3533 38.5092 26.4899C38.5145 26.6264 38.5466 26.7606 38.6037 26.8848V26.8848Z" fill="#3F3D56"/>
<path d="M32.1039 26.8848C32.0468 27.0089 31.9658 27.1206 31.8655 27.2134C31.7652 27.3063 31.6476 27.3784 31.5194 27.4258C31.3913 27.4732 31.255 27.4949 31.1185 27.4896C30.9819 27.4844 30.8477 27.4523 30.7236 27.3952L26.6272 25.5104C26.5029 25.4534 26.391 25.3724 26.2981 25.2722C26.2051 25.1719 26.1328 25.0543 26.0853 24.9261C26.0378 24.7978 26.016 24.6615 26.0213 24.5248C26.0265 24.3882 26.0586 24.2539 26.1158 24.1297C26.1729 24.0055 26.254 23.8937 26.3544 23.8009C26.4547 23.708 26.5724 23.6358 26.7007 23.5884C26.829 23.5411 26.9653 23.5195 27.102 23.5249C27.2386 23.5302 27.3729 23.5625 27.497 23.6198L31.5935 25.5045C31.7176 25.5616 31.8293 25.6426 31.9221 25.7429C32.015 25.8432 32.0872 25.9607 32.1345 26.0889C32.1819 26.2171 32.2036 26.3533 32.1984 26.4899C32.1931 26.6264 32.161 26.7606 32.1039 26.8848Z" fill="#3F3D56"/>
<path d="M31.1915 37.5899C31.0548 37.5899 30.9195 37.563 30.7932 37.5107C30.667 37.4584 30.5523 37.3817 30.4557 37.2851C30.359 37.1885 30.2824 37.0738 30.2301 36.9475C30.1778 36.8212 30.1509 36.6859 30.1509 36.5493V32.0401C30.1512 31.7643 30.261 31.5 30.4561 31.3051C30.6512 31.1102 30.9157 31.0007 31.1915 31.0007C31.4672 31.0007 31.7317 31.1102 31.9268 31.3051C32.1219 31.5 32.2317 31.7643 32.2321 32.0401V36.5493C32.2321 36.6859 32.2051 36.8212 32.1528 36.9475C32.1006 37.0738 32.0239 37.1885 31.9273 37.2851C31.8306 37.3817 31.7159 37.4584 31.5897 37.5107C31.4634 37.563 31.3281 37.5899 31.1915 37.5899V37.5899Z" fill="#3F3D56"/>
<path d="M43.6792 8.10634C43.7392 7.93906 43.7548 7.75911 43.7245 7.58401L43.1582 4.25233L42.5918 0.92065C42.5613 0.740763 42.4839 0.572093 42.3675 0.431595C42.251 0.291098 42.0997 0.183724 41.9286 0.120262C41.7575 0.0567995 41.5728 0.0394859 41.3929 0.0700643C41.213 0.100643 41.0443 0.178035 40.9038 0.29446L38.3017 2.45076L36.7915 3.70214C35.7409 3.54783 34.6723 3.56394 33.6267 3.74986L32.059 2.45076L29.4569 0.294456C29.3164 0.17803 29.1477 0.100638 28.9678 0.0700597C28.788 0.0394811 28.6032 0.0567926 28.4321 0.120255C28.261 0.183717 28.1097 0.291093 27.9932 0.431591C27.8768 0.572089 27.7994 0.740758 27.7689 0.920646L27.2025 4.25233L26.6362 7.58401C26.6112 7.72646 26.6167 7.87259 26.6523 8.01277C26.6879 8.15294 26.7528 8.28398 26.8427 8.39725C25.9229 9.91813 25.4276 11.6577 25.4082 13.435C25.3888 15.2123 25.8461 16.9623 26.7324 18.5029C27.6188 20.0434 28.9018 21.3183 30.448 22.1949C31.9942 23.0714 33.7471 23.5175 35.5242 23.4868C37.3013 23.4561 39.0377 22.9497 40.5527 22.0203C42.0677 21.0909 43.3059 19.7724 44.1385 18.2021C44.9711 16.6318 45.3677 14.8671 45.2869 13.0915C45.2061 11.316 44.651 9.59455 43.6792 8.10634H43.6792Z" fill="#3F3D56"/>
<path d="M40.838 1.77885L37.6825 4.3937L37.6824 4.39382C37.6129 4.45145 37.5597 4.52638 37.5283 4.61107C37.4969 4.69576 37.4884 4.78722 37.5035 4.87627C37.5186 4.96532 37.5569 5.04882 37.6146 5.11837C37.6722 5.18792 37.7471 5.24107 37.8318 5.27249L41.6742 6.69788C41.7589 6.7293 41.8504 6.73787 41.9394 6.72274C42.0285 6.7076 42.112 6.66929 42.1816 6.61165C42.2511 6.55401 42.3043 6.47908 42.3357 6.39438C42.3671 6.30968 42.3757 6.21821 42.3606 6.12915L41.6738 2.08885C41.6592 1.99959 41.621 1.91583 41.5633 1.84619C41.5056 1.77655 41.4303 1.72353 41.3453 1.69259C41.2875 1.67099 41.2263 1.65988 41.1646 1.65979C41.0452 1.66001 40.9296 1.70215 40.838 1.77885V1.77885Z" fill="#E6E6E6"/>
<path d="M29.0156 1.69259C28.9306 1.72353 28.8553 1.77655 28.7976 1.84619C28.7399 1.91583 28.7017 1.99959 28.6871 2.08885L28.0003 6.12915C27.9852 6.21821 27.9938 6.30968 28.0252 6.39438C28.0566 6.47908 28.1098 6.55401 28.1793 6.61165C28.2489 6.66929 28.3324 6.7076 28.4215 6.72274C28.5105 6.73787 28.602 6.7293 28.6867 6.69788L32.5291 5.27249C32.6137 5.24107 32.6887 5.18792 32.7463 5.11837C32.8039 5.04882 32.8423 4.96532 32.8574 4.87627C32.8725 4.78722 32.864 4.69576 32.8326 4.61107C32.8011 4.52638 32.748 4.45145 32.6784 4.39382L29.5229 1.77885C29.4313 1.70215 29.3157 1.66001 29.1963 1.65979C29.1346 1.65988 29.0734 1.67099 29.0156 1.69259Z" fill="#E6E6E6"/>
<path d="M35.3538 16.3156C36.12 16.3156 36.7412 15.6944 36.7412 14.9282C36.7412 14.1619 36.12 13.5407 35.3538 13.5407C34.5875 13.5407 33.9663 14.1619 33.9663 14.9282C33.9663 15.6944 34.5875 16.3156 35.3538 16.3156Z" fill="#E6E6E6"/>
<path d="M35.3539 14.5813C35.8648 14.5813 36.2789 14.426 36.2789 14.2344C36.2789 14.0429 35.8648 13.8876 35.3539 13.8876C34.8431 13.8876 34.429 14.0429 34.429 14.2344C34.429 14.426 34.8431 14.5813 35.3539 14.5813Z" fill="#3F3D56"/>
<path d="M35.4117 17.9343C35.3282 17.9343 35.2455 17.9179 35.1683 17.8859C35.0912 17.854 35.0211 17.8071 34.962 17.7481C34.903 17.689 34.8561 17.6189 34.8242 17.5418C34.7922 17.4646 34.7758 17.3819 34.7758 17.2984V15.7375H36.0476V17.2984C36.0476 17.3819 36.0312 17.4646 35.9992 17.5418C35.9672 17.6189 35.9204 17.689 35.8614 17.7481C35.8023 17.8071 35.7322 17.854 35.655 17.8859C35.5779 17.9179 35.4952 17.9343 35.4117 17.9343V17.9343Z" fill="#FF6584"/>
<path d="M35.2766 0C35.3433 0.138301 35.4081 0.278099 35.469 0.420755C36.1865 2.09421 36.4285 3.93318 36.1683 5.7353C36.0381 5.54642 35.9013 5.34965 35.7621 5.15071C36.0602 3.42114 35.8926 1.64341 35.2766 0V0Z" fill="#3F3D56"/>
<path d="M34.2361 1.27185C34.3028 1.41015 34.3675 1.54995 34.4284 1.69261C35.146 3.36606 35.388 5.20503 35.1278 7.00715C34.9976 6.81828 34.8608 6.6215 34.7216 6.42256C35.0196 4.69299 34.8521 2.91526 34.2361 1.27185V1.27185Z" fill="#3F3D56"/>
<path d="M31.0279 6.0068L31.1745 4.14254L31.3211 2.27828C31.329 2.17762 31.3633 2.08082 31.4204 1.99761C31.4776 1.91439 31.5557 1.84769 31.6468 1.80422C31.738 1.76074 31.8389 1.74202 31.9396 1.74994C32.0403 1.75786 32.1371 1.79213 32.2203 1.84931L33.7615 2.90839L34.8869 3.68177C34.9588 3.59755 35.0482 3.52993 35.1487 3.48356C35.2493 3.43719 35.3588 3.41318 35.4695 3.41318C35.5803 3.41318 35.6897 3.43719 35.7903 3.48356C35.8909 3.52993 35.9802 3.59755 36.0521 3.68177L37.1776 2.90839L38.7188 1.84931C38.802 1.79213 38.8988 1.75786 38.9994 1.74994C39.1001 1.74202 39.2011 1.76074 39.2922 1.80422C39.3833 1.84769 39.4614 1.91439 39.5186 1.99761C39.5758 2.08082 39.61 2.17762 39.6179 2.27828L39.7645 4.14254L39.9111 6.0068C39.919 6.10746 39.9003 6.20842 39.8569 6.29955C39.8134 6.39068 39.7467 6.46876 39.6635 6.52594C39.5803 6.58313 39.4835 6.6174 39.3828 6.62531C39.2821 6.63323 39.1812 6.61451 39.09 6.57103L37.4022 5.76586L36.0155 5.10428C35.9441 5.17658 35.8591 5.23399 35.7654 5.27317C35.6717 5.31235 35.5711 5.33253 35.4695 5.33253C35.3679 5.33253 35.2674 5.31235 35.1736 5.27317C35.0799 5.23399 34.9949 5.17658 34.9236 5.10428L33.5368 5.76586L31.849 6.57104C31.7579 6.61452 31.6569 6.63324 31.5562 6.62532C31.4556 6.61741 31.3588 6.58314 31.2756 6.52595C31.1923 6.46877 31.1256 6.39068 31.0822 6.29955C31.0387 6.20842 31.02 6.10746 31.0279 6.0068V6.0068Z" fill="#7863FF"/>
<path d="M36.8569 13.4251C36.8569 13.6166 37.0122 13.4251 37.2038 13.4251C37.3954 13.4251 37.5507 13.6166 37.5507 13.4251C37.5505 13.3332 37.5138 13.2451 37.4488 13.1803C37.3838 13.1154 37.2957 13.0789 37.2038 13.0789C37.1119 13.0789 37.0238 13.1154 36.9588 13.1803C36.8938 13.2451 36.8571 13.3332 36.8569 13.4251V13.4251Z" fill="#E6E6E6"/>
<path d="M33.8507 13.4251C33.8507 13.6166 33.6954 13.4251 33.5038 13.4251C33.3123 13.4251 33.157 13.6166 33.157 13.4251C33.1572 13.3332 33.1938 13.2451 33.2588 13.1803C33.3239 13.1154 33.412 13.0789 33.5038 13.0789C33.5957 13.0789 33.6838 13.1154 33.7489 13.1803C33.8139 13.2451 33.8505 13.3332 33.8507 13.4251V13.4251Z" fill="#E6E6E6"/>
<path d="M72.3341 39.6143V37.4095H61.3101V37.5474V39.6143V57.3905V59.5954H63.5149H72.3341V57.3905H63.5149V39.6143H72.3341Z" fill="#3F3D56"/>
<path d="M77.7081 37.4095V59.5953H88.7321V37.4095H77.7081ZM86.5273 57.3905H79.9129V39.6144H86.5273V57.3905Z" fill="#7863FF"/>
<path d="M47.1167 57.3905V37.5474H44.9119V57.3905V59.5954H47.1167H55.9359V57.3905H47.1167Z" fill="#7863FF"/>
<path d="M39.9509 39.6143V37.4095H28.9269V37.5474V39.6143V47.3311V49.536V57.3905V59.5954H31.1317H39.9509V57.3905H31.1317V49.536H39.9509V47.3311H31.1317V39.6143H39.9509Z" fill="#3F3D56"/>
<path d="M126.214 39.6143V37.4095H115.19V37.5474V39.6143V47.3311V49.536V57.3905V59.5954H117.395H126.214V57.3905H117.395V49.536H126.214V47.3311H117.395V39.6143H126.214Z" fill="#7863FF"/>
<path d="M21.4859 37.5474V55.7696L15.6726 49.9564L15.6594 49.9698L15.647 49.9575L9.7041 55.9004V37.4785H7.49927V59.5265H9.7041V59.0184L15.6604 53.0621L21.4859 58.8878V59.5954H23.6908V37.5474H21.4859Z" fill="#3F3D56"/>
<path d="M107.886 37.5474V38.0553L101.93 44.0117L96.1045 38.1861V37.4785H93.8997V59.5265H96.1045V41.3041L101.918 47.1175L101.931 47.1041L101.943 47.1163L107.886 41.1733V59.5954H110.091V37.5474H107.886Z" fill="#3F3D56"/>
<path d="M50.3843 23.9655C51.1317 23.9655 51.7376 23.3596 51.7376 22.6122C51.7376 21.8647 51.1317 21.2589 50.3843 21.2589C49.6369 21.2589 49.031 21.8647 49.031 22.6122C49.031 23.3596 49.6369 23.9655 50.3843 23.9655Z" fill="#7863FF"/>
<path d="M17.0028 39.0021C17.7502 39.0021 18.3561 38.3962 18.3561 37.6488C18.3561 36.9014 17.7502 36.2955 17.0028 36.2955C16.2554 36.2955 15.6495 36.9014 15.6495 37.6488C15.6495 38.3962 16.2554 39.0021 17.0028 39.0021Z" fill="#7863FF"/>
<path d="M43.7681 69.0755C44.5155 69.0755 45.1214 68.4696 45.1214 67.7222C45.1214 66.9748 44.5155 66.3689 43.7681 66.3689C43.0207 66.3689 42.4148 66.9748 42.4148 67.7222C42.4148 68.4696 43.0207 69.0755 43.7681 69.0755Z" fill="#7863FF"/>
<path d="M77.7511 28.0253C78.4985 28.0253 79.1044 27.4194 79.1044 26.672C79.1044 25.9246 78.4985 25.3187 77.7511 25.3187C77.0037 25.3187 76.3978 25.9246 76.3978 26.672C76.3978 27.4194 77.0037 28.0253 77.7511 28.0253Z" fill="#7863FF"/>
<path d="M117.598 67.8725C118.346 67.8725 118.952 67.2666 118.952 66.5192C118.952 65.7718 118.346 65.1659 117.598 65.1659C116.851 65.1659 116.245 65.7718 116.245 66.5192C116.245 67.2666 116.851 67.8725 117.598 67.8725Z" fill="#7863FF"/>
<path d="M118.952 32.3859C119.699 32.3859 120.305 31.78 120.305 31.0326C120.305 30.2852 119.699 29.6793 118.952 29.6793C118.204 29.6793 117.598 30.2852 117.598 31.0326C117.598 31.78 118.204 32.3859 118.952 32.3859Z" fill="#7863FF"/>
<path d="M101.81 56.7454C102.557 56.7454 103.163 56.1395 103.163 55.3921C103.163 54.6447 102.557 54.0388 101.81 54.0388C101.062 54.0388 100.456 54.6447 100.456 55.3921C100.456 56.1395 101.062 56.7454 101.81 56.7454Z" fill="#7863FF"/>
</g>
<defs>
<clipPath id="clip0_21_161">
<rect width="133.688" height="69.0755" fill="white"/>
</clipPath>
</defs>
</svg>
